<svg id="Mamida" xmlns="http://www.w3.org/2000/svg" viewBox="0 0 150.55 31.14"><path d="M59.66,28.14a4.11,4.11,0,0,1-3.55,3.24c-4.81,0-9.77-9.19-14-14.64-.1,1.6-.14,3.11-.12,4.36.1,4.1,1.61,5.33,0,5.38-2.83.08-3.59-4.87-3.67-10.15h-.19a3.47,3.47,0,0,1-3.45-2.91c0-1,1.47-1.68,2.85-1.68a5,5,0,0,1,.89.1c.19-4,.6-7.45.6-8s0-1.15,1.36-1.18A3,3,0,0,1,43.13,5c0,.41-.43,4.36-.77,8.57,3.79-2.19,7.5-6.73,7.5-10.84,0-1.35-.69-2.52.86-2.52,1.13,0,1.92,1.53,1.92,3.85,0,4.2-4.26,8.9-9.22,11.06,4.77,4.8,9.51,13,12.84,13C58.25,28.14,59.66,27,59.66,28.14Zm-21.25-15a2.43,2.43,0,0,0-1.12-.31c-2.57,0-2.42,2.15.88,2.15h.19C38.39,14.31,38.39,13.7,38.41,13.09Z" transform="translate(-2.67 -0.24)" fill="#8f1a1d"/><path d="M60.52,25.31c-1.53,0-3.28-1.13-3.28-4,0-.38,0-.79,0-1.25l-1.82,4.87a2.27,2.27,0,0,1,.19.72c0,.69-3.6.12-3.6-4.39,0-2.78.6-7.19.6-8.08,0-.62-.67-1.38.39-1.38,1.27,0,2.8.76,2.8,1.68s-.91,4-.91,7.6a13.72,13.72,0,0,0,.26,3c.48-1.18,1.58-4,2.18-6.05,0-.94.1-1.76.1-2,0-.46.09-1.12.67-1.12s2.8.23,2.8,1.48a33.86,33.86,0,0,0-.38,5.15C60.55,24.49,61.46,25.31,60.52,25.31Z" transform="translate(-2.67 -0.24)" fill="#8f1a1d"/><path d="M72.72,18c-.17.51-1.56,6.76-5.32,6.76-3.33,0-5.32-3.19-5.32-5.74a11.67,11.67,0,0,1,2.54-7.3c1-.91,3.28-.76,4-.38a3.31,3.31,0,0,1,1.24,3c0,2.68-1.2,4.08-2.75,4.08a6.54,6.54,0,0,1-1.75-.33c-.19,2.52,1.27,5.1,2.59,5.1,3,0,4.12-5,4.26-5.38S72.89,17.5,72.72,18Zm-7.28-.49c3,1.38,3.52-4.26,2.3-4.26S65.68,15.33,65.44,17.55Z" transform="translate(-2.67 -0.24)" fill="#8f1a1d"/><path d="M26.68,24.06c-4.27,0-4.2-8.85-4.2-8.85s-2.6,8.26-3.68,8.26-3.74-.48-3.74-3.38S16.78,7.4,15.71,7.4c-1.89,0-3.29,11.91-4.33,15.72.23.88.26,1.17-.55,1.17-4.49,0-3.84-9-3.84-12.4,0-.49-.39-.49-.39-1,0-1,4.59-.42,4.59,1.47s-.36,4.1-.36,6.44c0,.49,0,.91,0,1.27.68-4.07,2.67-14.45,5.5-14.45,5.6,0,2.64,13.15,3,13.15s2.57-7.94,4.23-7.94,3.55.42,3.55,2.18c0,1.07-.43,2.7-.43,4.85C26.74,22.6,28,24.06,26.68,24.06Z" transform="translate(-2.67 -0.24)" fill="#8f1a1d"/><rect x="0.5" y="1.18" width="28.52" height="28.52" rx="8.02" fill="none" stroke="#8f1a1d" stroke-miterlimit="10"/><path d="M96.44,27.74c-5,0-4.94-12.74-4.94-12.74s-3.06,11.9-4.33,11.9-4.4-.7-4.4-4.87,2-18.27.77-18.27c-2.22,0-3.87,17.15-5.09,22.63.26,1.26.3,1.68-.65,1.68-5.29,0-4.52-13-4.52-17.84,0-.7-.46-.7-.46-1.41,0-1.4,5.4-.61,5.4,2.11s-.42,5.9-.42,9.27c0,.71,0,1.31,0,1.83C78.64,16.18,81,1.24,84.3,1.24c6.59,0,3.1,18.92,3.56,18.92s3-11.43,5-11.43S97,9.34,97,11.87c0,1.54-.5,3.88-.5,7C96.51,25.64,98,27.74,96.44,27.74Z" transform="translate(-2.67 -0.24)" fill="#8f1a1d"/><path d="M112.28,17.79c-.1.61-2.15,9.67-3.93,10.46a.57.57,0,0,1-.33.08c-2,0-2.45-5.14-2.6-5.14s-1,4-2.61,4-3-1.39-3-5.05c0-3.45,1.5-9.08,4.6-9.08,2.15,0,3.68,0,3.68,3.84,0,.37-.75.68-.75.1s-.15-2.73-.92-2.73c-2.05,0-3.87,4.68-3.87,9.53,0,1,.08,2.55.71,2.55s1.94-5.5,1.94-6.87c0-.53,0-1.47,1.26-1.47s1.8.73,1.8,1.29v.42c.06,1.79-.07,6.84.62,6.84.44,0,2.74-8.32,2.89-8.9S112.39,17.14,112.28,17.79Z" transform="translate(-2.67 -0.24)" fill="#8f1a1d"/><path d="M123,27.3c-2.74,0-2.7-7.16-2.7-7.16s-1.68,6.69-2.37,6.69a2.43,2.43,0,0,1-2.4-2.74c0-2.37,1.11-10.27.42-10.27-1.22,0-2.12,9.64-2.78,12.72.14.71.16.94-.36.94-2.89,0-2.47-7.29-2.47-10,0-.39-.25-.39-.25-.79,0-.79,3-.34,3,1.19s-.23,3.32-.23,5.21c0,.4,0,.74,0,1,.44-3.29,1.72-11.69,3.53-11.69,3.6,0,1.7,10.63,1.95,10.63s1.65-6.42,2.72-6.42,2.28.34,2.28,1.76c0,.87-.27,2.19-.27,3.93C123.08,26.11,123.91,27.3,123,27.3Z" transform="translate(-2.67 -0.24)" fill="#8f1a1d"/><path d="M124.4,10c0-1.34.9-1.29,1.94-1.29s2.14,1.58,2.14,2.58C128.48,13.61,124.4,11.27,124.4,10Zm6.9,9.56c-.25,1.23-2,7.45-3.41,7.45h0c-2.72,0-3-4.93-3-7.35,0-3.05.23-4.16.23-4.82,0-1.16,2.63-.13,2.63,1.19,0,.95-.12,2.53-.12,3.66a16.55,16.55,0,0,0,.79,5.58c.86-.58,2.36-5.08,2.51-5.77S131.38,19.08,131.3,19.51Z" transform="translate(-2.67 -0.24)" fill="#8f1a1d"/><path d="M138.64,19.3c0,10.11,1.42,10.4.48,10.4-2.69,0-3.11-5.61-3.26-5.61s-1.23,3.13-2.89,3.13-3.34-1.4-3.34-5.06c0-3.44,1.5-9.1,4.6-9.1,1.15,0,1.86,0,2.28.6.42-3.95,1-8.14,1-8.27s0-.63.42-.63,2.26.79,2.26,1.74S138.64,13.45,138.64,19.3Zm-2.49-2c-.33,0-.67-.05-.67-.32,0-.57.49-2.71-.29-2.71-1.55,0-2.82,4.66-2.82,9.51,0,1,.44,2.55,1.07,2.55s2.61-5.5,2.61-6.87C136.05,18.93,136.09,18.19,136.15,17.32Z" transform="translate(-2.67 -0.24)" fill="#8f1a1d"/><path d="M153.2,17.79c-.1.61-2.15,9.67-3.93,10.46a.57.57,0,0,1-.33.08c-2,0-2.45-5.14-2.6-5.14s-1,4-2.61,4-3-1.39-3-5.05c0-3.45,1.5-9.08,4.6-9.08,2.15,0,3.68,0,3.68,3.84,0,.37-.75.68-.75.1s-.15-2.73-.92-2.73c-2,0-3.87,4.68-3.87,9.53,0,1,.08,2.55.71,2.55s1.94-5.5,1.94-6.87c0-.53,0-1.47,1.26-1.47s1.8.73,1.8,1.29v.42c.06,1.79-.07,6.84.62,6.84.44,0,2.74-8.32,2.89-8.9S153.31,17.14,153.2,17.79Z" transform="translate(-2.67 -0.24)" fill="#8f1a1d"/></svg>