<svg id="Layer_1" data-name="Layer 1" xmlns="http://www.w3.org/2000/svg" viewBox="0 0 31.79 31.79"><path d="M23,.1H9.05a9,9,0,0,0-9,9V23a9,9,0,0,0,9,9H23a9,9,0,0,0,9-8.95V9.05A9,9,0,0,0,23,.1Zm3.36,25.24c-4.76,0-4.68-9.86-4.68-9.86s-2.9,9.21-4.1,9.21-4.17-.54-4.17-3.77,1.92-14.15.72-14.15c-2.1,0-3.66,13.28-4.82,17.52.25,1,.29,1.31-.62,1.31-5,0-4.28-10-4.28-13.82,0-.55-.44-.55-.44-1.09C3.92,9.6,9,10.22,9,12.32s-.4,4.57-.4,7.18c0,.55,0,1,0,1.42.76-4.54,3-16.11,6.13-16.11,6.24,0,2.94,14.66,3.37,14.66s2.87-8.86,4.72-8.86,4,.48,4,2.44c0,1.19-.47,3-.47,5.4C26.38,23.71,27.83,25.34,26.31,25.34Z" transform="translate(-0.1 -0.1)" fill="#8f1a1d"/></svg>